#!OML:ASF F:\VICON\USERDATA\INSTALL\rory3\rory3.ASF
:FULLY-SPECIFIED
:DEGREES
571
root -0.516514 16.9239 27.7357 9.51142 -1.8312 -6.50919
lowerback -6.64191 2.10426 6.53473
upperback -4.62147 2.46705 1.34693
thorax -0.858363 1.11208 -2.12025
lowerneck -12.6598 -3.10025 -7.97243
upperneck 25.4834 -4.29299 6.70216
head 10.5659 -1.96723 3.2089
rclavicle -6.94193e-015 4.42296e-015
rhumerus -34.6291 8.21635 -88.3181
rradius 38.5508
rwrist -1.59262
rhand -26.9441 -47.4784
rfingers 7.12502
rthumb -0.366138 -77.4578
lclavicle -6.94193e-015 4.42296e-015
lhumerus -46.8692 -3.52023 84.5485
lradius 31.218
lwrist 9.15888
lhand -32.578 -25.2796
lfingers 7.12502
lthumb -5.80678 4.62086
rfemur -16.598 8.69349 32.5697
rtibia 30.879
rfoot -18.2164 -12.7779
rtoes 6.29602
lfemur -40.841 -0.79122 -13.5831
ltibia 50.2152
lfoot -14.6348 9.38302
ltoes -8.01693
572
root -0.534149 16.9051 27.7968 9.51142 -2.20711 -7.08164
lowerback -5.98505 2.24574 6.84266
upperback -4.52765 2.69362 1.51217
thorax -1.10248 1.21549 -2.12857
lowerneck -14.0261 -3.4172 -7.37919
upperneck 26.3096 -4.56158 5.72144
head 11.1316 -2.1254 2.71519
rclavicle -2.54413e-014 1.78906e-015
rhumerus -33.8189 8.58027 -88.3326
rradius 38.4976
rwrist -1.4352
rhand -25.769 -48.1154
rfingers 7.12502
rthumb 0.768859 -78.0937
lclavicle -2.54413e-014 1.78906e-015
lhumerus -46.5817 -3.39161 84.4374
lradius 31.4035
lwrist 9.28219
lhand -32.8481 -27.3058
lfingers 7.12502
lthumb -6.06755 2.58729
rfemur -15.9592 9.68077 33.2961
rtibia 30.0998
rfoot -17.7756 -13.3496
rtoes 4.54421
lfemur -41.3869 -0.524214 -12.793
ltibia 48.6635
lfoot -14.041 9.30925
ltoes -9.07883
573
root -0.525259 16.9296 27.9614 9.74008 -2.27822 -7.28598
lowerback -6.95964 2.34948 7.2342
upperback -4.29904 2.70811 1.53445
thorax -0.309816 1.2437 -2.27907
lowerneck -14.6206 -3.59241 -7.22902
upperneck 26.6436 -4.75004 5.45514
head 11.3821 -2.2192 2.5632
rclavicle 1.922e-014 -3.18055e-015
rhumerus -33.5157 8.82291 -88.347
rradius 38.7604
rwrist -1.15797
rhand -25.3383 -48.1673
rfingers 7.12502
rthumb 1.18482 -78.1438
lclavicle 1.922e-014 -3.18055e-015
lhumerus -46.4821 -3.10815 84.3149
lradius 31.5518
lwrist 9.11017
lhand -32.9816 -28.2382
lfingers 7.12502
lthumb -6.19646 1.6512
rfemur -15.0743 9.19437 33.4645
rtibia 29.3128
rfoot -18.1091 -13.0337
rtoes 4.26018
lfemur -41.5399 -0.711989 -12.5513
ltibia 46.9784
lfoot -13.9721 9.4819
ltoes -8.61429
574
root -0.511753 16.9528 28.1114 9.99834 -2.29652 -7.37035
lowerback -7.41582 2.44423 7.56671
upperback -4.42104 2.77649 1.48968
thorax -0.164332 1.27311 -2.48906
lowerneck -14.9486 -3.69297 -7.08463
upperneck 27.0454 -4.86164 5.22192
head 11.6011 -2.27929 2.43755
rclavicle 2.46648e-014 1.81888e-014
rhumerus -33.7411 8.74511 -88.3561
rradius 39.1756
rwrist -0.884653
rhand -25.1263 -48.7852
rfingers 7.12502
rthumb 1.38957 -78.7604
lclavicle 2.46648e-014 1.81888e-014
lhumerus -46.873 -3.10645 84.3318
lradius 31.6855
lwrist 9.19444
lhand -32.9229 -27.9515
lfingers 7.12502
lthumb -6.13977 1.93955
rfemur -14.3554 8.5856 33.4647
rtibia 28.6266
rfoot -18.4447 -12.5843
rtoes 4.21936
lfemur -41.7654 -0.973449 -12.4404
ltibia 45.1917
lfoot -13.8481 9.67081
ltoes -9.1111
575
root -0.51178 16.9533 28.1975 10.0315 -2.44361 -7.19092
lowerback -6.58113 2.44156 7.37702
upperback -4.81857 2.88756 1.40047
thorax -1.03319 1.29427 -2.51054
lowerneck -12.9387 -3.2074 -7.75235
upperneck 25.6591 -4.43395 6.50526
head 10.6884 -2.02864 3.08195
rclavicle -6.91709e-015 -6.06293e-015
rhumerus -34.0245 8.7845 -88.4947
rradius 39.3751
rwrist -0.902536
rhand -25.0522 -49.3598
rfingers 7.12502
rthumb 1.46112 -79.3345
lclavicle -6.91709e-015 -6.06293e-015
lhumerus -47.4233 -3.25156 84.386
lradius 31.6805
lwrist 9.81474
lhand -32.838 -27.1987
lfingers 7.12502
lthumb -6.05779 2.69472
rfemur -13.6871 8.86649 33.2857
rtibia 27.8635
rfoot -18.1728 -12.7492
rtoes 3.90111
lfemur -41.9802 -1.11233 -12.5329
ltibia 43.298
lfoot -13.253 9.65874
ltoes -10.0322
576
root -0.51223 16.9472 28.286 10.0542 -2.66475 -7.13829
lowerback -6.07339 2.43471 7.28128
upperback -4.92977 2.9374 1.36195
thorax -1.42779 1.30565 -2.51763
lowerneck -12.7518 -3.11525 -7.8525
upperneck 25.5404 -4.38037 6.84932
head 10.6124 -1.97749 3.23097
rclavicle -1.667e-014 -1.82882e-014
rhumerus -33.7933 9.10622 -88.7192
rradius 39.3561
rwrist -1.14514
rhand -25.5959 -48.7913
rfingers 7.12502
rthumb 0.936009 -78.769
lclavicle -1.667e-014 -1.82882e-014
lhumerus -47.5192 -3.22751 84.3603
lradius 31.7479
lwrist 10.5671
lhand -32.6596 -25.8472
lfingers 7.12502
lthumb -5.88553 4.05109
rfemur -13.0203 9.24696 33.2428
rtibia 27.1574
rfoot -17.8994 -12.8743
rtoes 3.60308
lfemur -42.0956 -1.17362 -12.4762
ltibia 41.4387
lfoot -12.5598 9.63684
ltoes -10.4282
577
root -0.505352 16.9555 28.435 10.1477 -2.87733 -7.21907
lowerback -6.82544 2.55251 7.47395
upperback -4.64048 2.99567 1.33721
thorax -0.69413 1.36022 -2.60764
lowerneck -13.7076 -3.31434 -7.54963
upperneck 26.123 -4.57804 6.40364
head 11.0187 -2.07387 2.99326
rclavicle -1.60053e-014 -8.15017e-015
rhumerus -33.2784 9.20587 -88.7909
rradius 39.3979
rwrist -1.26026
rhand -26.048 -48.4119
rfingers 7.12502
rthumb 0.49941 -78.3911
lclavicle -1.60053e-014 -8.15017e-015
lhumerus -47.2975 -3.10325 84.2557
lradius 32.5046
lwrist 11.6203
lhand -31.7527 -21.3425
lfingers 7.12502
lthumb -5.00994 8.57825
rfemur -12.1451 9.07043 33.2734
rtibia 26.4865
rfoot -18.1469 -12.5191
rtoes 3.63048
lfemur -41.9401 -1.31968 -12.3133
ltibia 39.5927
lfoot -12.1351 9.73059
ltoes -10.5405
